<?xml version="1.0" encoding="utf-8"?>
<!-- Generator: Adobe Illustrator 16.0.0, SVG Export Plug-In . SVG Version: 6.00 Build 0)  -->
<!DOCTYPE svg PUBLIC "-//W3C//DTD SVG 1.1//EN" "http://www.w3.org/Graphics/SVG/1.1/DTD/svg11.dtd">
<svg version="1.1" id="圖層_1" xmlns="http://www.w3.org/2000/svg" xmlns:xlink="http://www.w3.org/1999/xlink" x="0px" y="0px"
	 width="114.667px" height="37.75px" viewBox="0 0 114.667 37.75" enable-background="new 0 0 114.667 37.75" xml:space="preserve">
<g id="圖層_2" display="none">
	<rect display="inline" fill="#040000" width="114.667" height="37.75"/>
</g>
<text transform="matrix(1 0 0 1 5.1309 26.2148)" display="none" fill="#F16600" enable-background="new    " font-family="'DFHaiBao-W12-WIN-BF'" font-size="26">分集大綱</text>
<g enable-background="new    ">
	<path fill="#F16600" d="M12.646,8.009l3.428,3.25c-1.371,1.489-2.742,2.996-4.113,4.52c0.508-0.152,1.058-0.313,1.65-0.482
		c2.184-0.66,4.621-0.99,7.313-0.99c1.93,0,3.504,0.448,4.723,1.346c1.151,0.981,1.727,2.116,1.727,3.402v0.507
		c0,1.285-0.22,2.953-0.66,5.002c-0.525,2.115-1.092,3.81-1.701,5.078l-4.57-0.889c0.813-1.863,1.413-3.605,1.803-5.23
		c0.355-1.489,0.533-2.717,0.533-3.682c0-0.391-0.22-0.686-0.66-0.889c-0.525-0.254-1.228-0.381-2.107-0.381
		c-0.491,0-1.024,0.025-1.6,0.076c-1.354,3.266-2.404,6.795-3.148,10.588l-4.57-1.017c0.542-2.879,1.295-5.653,2.26-8.327
		c-0.745,0.305-1.498,0.643-2.26,1.016L9.78,18.241c-0.136,0.152-0.263,0.296-0.381,0.432l-3.555-3.25
		C8.194,12.681,10.463,10.209,12.646,8.009z M19.045,7.222C22.803,7.798,26.484,8.61,30.09,9.66l-0.813,4.545
		c-3.69-0.999-7.38-1.837-11.07-2.514L19.045,7.222z"/>
	<path fill="#F16600" d="M39.561,7.705l0.432,0.965c1.185-0.067,2.37-0.127,3.555-0.178c-0.051-0.491-0.102-0.948-0.152-1.371
		l4.367-0.533c0.067,0.576,0.144,1.16,0.229,1.752c2.184-0.067,4.418-0.102,6.703-0.102l0.279,2.717
		c-2.251,0-4.478,0.034-6.678,0.102c0.017,0.187,0.034,0.381,0.051,0.584c1.659-0.034,3.292-0.051,4.9-0.051l0.33,2.717
		c-1.693,0-3.335,0.017-4.926,0.051c0.017,0.203,0.034,0.381,0.051,0.533c1.523-0.034,3.038-0.051,4.545-0.051l0.33,2.717
		c-1.574,0-3.089,0.017-4.545,0.051c0.017,0.203,0.034,0.39,0.051,0.559c1.946-0.051,3.885-0.076,5.814-0.076l0.279,2.718
		c-3.098,0-6.06,0.059-8.887,0.178c0.034,0.219,0.067,0.422,0.102,0.608c2.708-0.102,5.476-0.151,8.303-0.151l0.381,3.731
		c-2.726,0-5.425,0.06-8.1,0.179c0.186,1.303,0.381,2.631,0.584,3.985l-4.367,0.533c-0.22-1.457-0.423-2.836-0.609-4.14
		c-1.727,1.523-3.445,3.099-5.154,4.724l-2.768-2.515c0.694-0.659,1.362-1.287,2.006-1.879c-0.863,0.066-1.727,0.144-2.59,0.229
		l-0.432-3.731c2.708-0.322,5.484-0.568,8.328-0.736c-0.017-0.221-0.042-0.416-0.076-0.584c-0.796,0.051-1.558,0.102-2.285,0.152
		c0.017,0.084,0.034,0.168,0.051,0.254l-4.088,0.381c-0.457-2.98-0.863-5.671-1.219-8.075c-0.136,0.051-0.263,0.102-0.381,0.152
		l-1.65-3.428C34.88,9.507,37.292,8.517,39.561,7.705z M44.283,15.042c-0.017-0.203-0.034-0.39-0.051-0.559
		c-1.947,0.102-3.817,0.22-5.611,0.355c0.034,0.187,0.059,0.355,0.076,0.508C40.593,15.211,42.455,15.11,44.283,15.042z
		 M43.928,11.792c-0.017-0.203-0.034-0.397-0.051-0.584c-1.253,0.067-2.48,0.144-3.682,0.229c-0.457,0.203-0.923,0.406-1.396,0.609
		C40.525,11.945,42.235,11.86,43.928,11.792z M39.205,18.648c1.828-0.136,3.639-0.237,5.434-0.305
		c-0.017-0.203-0.034-0.406-0.051-0.609c-1.896,0.102-3.724,0.212-5.484,0.33C39.137,18.267,39.171,18.461,39.205,18.648z
		 M49.209,25.504c2.302,0.389,4.257,0.828,5.865,1.32l-1.016,3.25c-2.251-0.543-4.207-0.982-5.865-1.32L49.209,25.504z"/>
	<path fill="#F16600" d="M80.261,11.158l0.533,4.367c-3.471,0-6.948,0.085-10.437,0.254c-0.711,1.625-1.388,3.225-2.03,4.799
		c3.877,1.557,8.158,2.623,12.848,3.199l-1.016,4.545c-5.265-0.646-9.759-1.795-13.482-3.453c-0.66,1.676-1.277,3.342-1.854,5.002
		l-4.646-1.65c1.812-4.385,3.486-8.447,5.027-12.188c-1.846,0.118-3.699,0.254-5.562,0.406l-0.481-4.367
		c2.572-0.237,5.213-0.423,7.922-0.559c0.644-1.54,1.252-3.005,1.828-4.393l4.646,1.6c-0.406,0.863-0.804,1.718-1.193,2.564
		C74.955,11.2,77.587,11.158,80.261,11.158z"/>
	<path fill="#F16600" d="M88.996,7.121c0.609,0.136,1.236,0.618,1.879,1.447c1.338,1.642,2.006,3.165,2.006,4.57
		c-0.032,0.948-0.202,1.692-0.508,2.234c0.289,0.491,0.5,0.948,0.635,1.371c0.238,0.644,0.355,1.253,0.355,1.828
		c0,1.252-0.414,2.209-1.244,2.871c-0.423,0.338-0.88,0.6-1.371,0.787c0.019,0.389,0.043,0.776,0.076,1.168
		c0.897,0.186,1.854,0.278,2.869,0.278l-0.33,3.148c-0.846,0-1.625-0.052-2.336-0.152c0.068,0.947,0.137,1.904,0.203,2.869
		l-3.453,0.33c-0.102-1.711-0.203-3.312-0.305-4.8c-0.254,1.285-0.381,2.548-0.381,3.783l-2.945-0.33
		c0-1.896,0.271-3.758,0.813-5.586l2.388,0.254c-0.017-0.254-0.033-0.5-0.052-0.735c-0.489-0.086-0.946-0.238-1.371-0.457
		c-1.133-0.576-1.7-1.617-1.7-3.124c0-0.863,0.321-1.997,0.965-3.402c-0.438-0.694-0.66-1.523-0.66-2.488
		c0-1.405,1.05-3.132,3.147-5.18C88.302,7.349,88.742,7.121,88.996,7.121z M87.751,16.947c-0.187,0.44-0.279,0.711-0.279,0.813
		c0,0.677,0.094,1.168,0.279,1.473c0.136,0.237,0.414,0.356,0.838,0.356c0.593,0,0.998-0.229,1.219-0.686
		c0.203-0.237,0.305-0.686,0.305-1.346c0-0.187-0.084-0.44-0.254-0.762c-0.523,0.102-1.107,0.161-1.752,0.178
		C87.972,16.972,87.853,16.963,87.751,16.947z M88.513,14.306c0.373,0,0.72-0.085,1.041-0.254c0.17-0.187,0.254-0.491,0.254-0.914
		c-0.018-0.593-0.109-1.21-0.279-1.854c-0.203-0.474-0.381-0.711-0.533-0.711c-0.287,0-0.565,0.321-0.838,0.965
		c-0.305,0.626-0.498,1.32-0.584,2.082c0,0.237,0.061,0.39,0.178,0.457C87.904,14.23,88.158,14.306,88.513,14.306z M96.207,8.923
		c0.019,0.22,0.035,0.432,0.051,0.635c0.373-0.136,0.763-0.271,1.168-0.406c1.847-0.542,3.869-0.813,6.068-0.813
		c1.676,0,2.92,0.651,3.732,1.955c0.693,1.117,1.05,2.564,1.066,4.342v1.092c0,1.727-0.103,3.589-0.306,5.586
		c-0.202,1.979-0.668,4.653-1.396,8.022l-3.25-0.584c0.187-0.914,0.354-1.762,0.508-2.539c-0.744,0.66-1.734,0.99-2.971,0.99h-1.017
		c-0.965,0-1.684-0.265-2.157-0.787c0.102,0.931,0.187,1.844,0.254,2.742l-3.479,0.278c-0.644-7.565-1.21-14.294-1.701-20.186
		L96.207,8.923z M96.791,15.423c0.44,0,0.89,0.009,1.347,0.025c-0.321-0.66-0.593-1.346-0.813-2.057l2.438-1.016
		c0.288,0.948,0.644,1.828,1.065,2.641c0.44-1.032,0.83-1.946,1.168-2.742l2.463,0.813c-0.457,0.914-0.862,1.812-1.219,2.691
		c0.609,0.051,1.211,0.11,1.803,0.178v-0.355c0-1.507-0.168-2.548-0.508-3.123c-0.389-0.66-1.041-0.99-1.955-0.99
		c-1.016,0-2.047,0.144-3.098,0.432c-0.829,0.22-1.803,0.584-2.92,1.092C96.647,13.824,96.723,14.627,96.791,15.423z M97.298,21.467
		c0.17-0.746,0.424-1.498,0.762-2.26l1.879,0.381c0.051-0.492,0.102-0.949,0.152-1.372c-1.049-0.051-2.073-0.085-3.072-0.102
		C97.104,19.215,97.197,20.332,97.298,21.467z M99.888,19.816c-0.338,0.879-0.609,1.92-0.813,3.123c0,0.625,0.084,1.006,0.254,1.143
		c0.051,0.051,0.109,0.084,0.178,0.102C99.609,22.66,99.736,21.203,99.888,19.816z M101.869,24.184
		c0.237-0.067,0.424-0.162,0.56-0.278c0.254-0.203,0.381-0.652,0.381-1.347c-0.118-0.848-0.306-1.635-0.56-2.36
		C102.082,21.5,101.955,22.828,101.869,24.184z M102.326,19.537l1.701-0.331c0.322,0.676,0.542,1.413,0.66,2.209
		c0-0.067,0.009-0.138,0.025-0.203c0.102-0.932,0.178-1.803,0.229-2.616c-0.829-0.085-1.65-0.161-2.463-0.229
		C102.427,18.758,102.376,19.147,102.326,19.537z"/>
</g>
</svg>
