<?xml version="1.0" encoding="utf-8"?>
<!-- Generator: Adobe Illustrator 16.0.0, SVG Export Plug-In . SVG Version: 6.00 Build 0)  -->
<!DOCTYPE svg PUBLIC "-//W3C//DTD SVG 1.1//EN" "http://www.w3.org/Graphics/SVG/1.1/DTD/svg11.dtd">
<svg version="1.1" id="圖層_1" xmlns="http://www.w3.org/2000/svg" xmlns:xlink="http://www.w3.org/1999/xlink" x="0px" y="0px"
	 width="114.667px" height="37.75px" viewBox="0 0 114.667 37.75" enable-background="new 0 0 114.667 37.75" xml:space="preserve">
<g id="圖層_2" display="none">
	<rect display="inline" fill="#040000" width="114.667" height="37.75"/>
</g>
<text transform="matrix(1 0 0 1 5.1309 26.2148)" display="none" fill="#E60012" enable-background="new    " font-family="'DFHaiBao-W12-WIN-BF'" font-size="26">人物角色</text>
<g enable-background="new    ">
	<path fill="#E60012" d="M17.725,7.425l3.732,2.412c-1.913,2.573-3.716,5.214-5.408,7.922c4.841,1.388,9.462,3.081,13.863,5.079
		l-1.422,4.469c-5.044-2.303-10.013-4.131-14.904-5.484c-1.253,2.166-2.455,4.367-3.605,6.602l-4.139-2.92
		C9.786,18.394,13.747,12.368,17.725,7.425z"/>
	<path fill="#E60012" d="M33.975,10.675l3.25,0.711c-0.22,0.711-0.415,1.438-0.584,2.184c0.338,0.017,0.651,0.034,0.939,0.051
		c-0.152-1.456-0.305-2.844-0.457-4.164l3.834-0.432c0.186,1.591,0.381,3.208,0.584,4.85c0.575,0.051,1.134,0.102,1.676,0.152
		c0.559-2.099,1.295-4.104,2.209-6.018l3.986,0.914c-0.203,0.44-0.398,0.863-0.584,1.27c0.559-0.085,1.108-0.136,1.65-0.152
		c1.946,0,3.326,0.542,4.139,1.625c0.846,1.083,1.278,2.971,1.295,5.662v1.193c0,3.606-0.652,7.245-1.955,10.918l-4.164-0.686
		c0.795-1.98,1.354-3.895,1.676-5.738c-1.388,1.387-2.785,2.818-4.189,4.291l-2.438-2.234c1.642-1.795,3.225-3.412,4.748-4.85
		l2.031,1.828c0.135-1,0.203-1.965,0.203-2.895c0-2.472-0.102-3.936-0.305-4.393c-0.203-0.694-0.584-1.041-1.143-1.041
		c-1.101,0.085-2.133,0.397-3.098,0.939c-0.203,0.694-0.39,1.388-0.559,2.082c0.186-0.152,0.338-0.288,0.457-0.406l2.412,2.234
		c-1.659,1.59-3.352,3.258-5.078,5.002l-1.422-1.295c-0.187,0.066-0.373,0.135-0.559,0.203c0.169,1.422,0.33,2.869,0.482,4.342
		l-3.885,0.381c-0.136-1.152-0.263-2.277-0.381-3.377c-1.32,0.473-2.649,0.955-3.986,1.447l-1.117-3.631
		c1.625-0.627,3.182-1.211,4.672-1.752c-0.136-0.965-0.254-1.905-0.355-2.819c-0.694-0.051-1.371-0.102-2.031-0.152
		c-0.169,0.981-0.322,1.972-0.457,2.971l-3.25-0.686C32.612,16.194,33.196,13.35,33.975,10.675z M43.344,19.994
		c1.083-1.083,2.116-2.074,3.098-2.971l-3.326-0.762l-0.102,1.193c-0.373-0.034-0.728-0.06-1.066-0.076
		c0.051,0.423,0.093,0.838,0.127,1.244c0.254-0.085,0.499-0.161,0.736-0.229L43.344,19.994z"/>
	<path fill="#E60012" d="M63.63,6.486l4.063,0.939c-0.236,0.406-0.439,0.821-0.609,1.244c2.133-0.288,4.215-0.432,6.246-0.432
		c1.101,0,2.049,0.288,2.844,0.863c0.779,0.593,1.168,1.337,1.168,2.234c-0.033,0.813-0.169,1.667-0.406,2.564
		c0.847,0.254,1.6,0.626,2.26,1.117c1.389,1.473,2.082,3.216,2.082,5.231v1.117c-0.135,3.352-0.575,6.322-1.32,8.912l-4.266-0.838
		c0.288-0.83,0.525-1.686,0.711-2.564c-3.961,0.371-7.955,0.643-11.984,0.813c0.068,0.795,0.145,1.59,0.229,2.387l-4.266,0.381
		c-0.559-5.824-1.032-10.994-1.422-15.514l4.266-0.432c0.018,0.22,0.034,0.415,0.051,0.584c0.406-0.136,0.805-0.263,1.193-0.381
		l-3.479-0.787C61.548,11.301,62.429,8.822,63.63,6.486z M64.113,24.438c1.304-0.068,2.607-0.145,3.91-0.229
		c0.034-0.576,0.076-1.143,0.127-1.701c-1.1-0.035-2.209-0.051-3.326-0.051l0.305-3.25c1.151,0,2.303,0.017,3.453,0.051
		c0.085-0.542,0.178-1.075,0.279-1.6c-1.896,0.339-3.639,0.847-5.23,1.523C63.783,20.891,63.944,22.643,64.113,24.438z
		 M65.103,14.509c2.522-0.694,5.078-1.066,7.668-1.117c0.068-0.203,0.102-0.406,0.102-0.609c0-0.474-0.49-0.711-1.473-0.711
		c-2.166,0.051-4.121,0.33-5.865,0.838C65.382,13.452,65.239,13.985,65.103,14.509z M72.314,23.93
		c1.523-0.119,3.056-0.254,4.596-0.406c0.051-0.508,0.085-1.025,0.102-1.549c0-1.813-0.287-3.107-0.863-3.885
		c-0.744-0.508-1.727-0.778-2.945-0.813c-0.152,0.711-0.287,1.413-0.406,2.108c1.236,0.051,2.446,0.117,3.631,0.203l-0.305,3.25
		c-1.252-0.086-2.488-0.152-3.707-0.203C72.365,23.074,72.332,23.506,72.314,23.93z"/>
	<path fill="#E60012" d="M88.792,6.892l4.088,0.914c-0.135,0.271-0.262,0.542-0.381,0.813c2.015-0.406,3.902-0.609,5.662-0.609
		c2.488,0,3.732,0.745,3.732,2.234c0,0.948-0.194,1.93-0.584,2.945c1.473,0.187,2.607,0.626,3.402,1.32
		c1.033,0.88,1.549,2.285,1.549,4.215c0,1.895-0.432,3.174-1.295,3.834c-1.1,0.896-2.801,1.361-5.104,1.396
		c-3.419,0-6.491-0.162-9.217-0.482c0,0.965,0.373,1.676,1.117,2.133c0.711,0.457,1.888,0.686,3.529,0.686
		c2.844,0,6.094-0.568,9.75-1.701l0.838,3.834c-3.588,1.168-6.974,1.752-10.156,1.752H94.48c-2.251,0-4.181-0.424-5.789-1.27
		c-1.743-1.066-2.615-2.574-2.615-4.52c0-2.574,0.457-5.4,1.371-8.481l-1.574-0.381C86.5,12.495,87.472,9.618,88.792,6.892z
		 M90.595,13.824l0.254,0.051c2.049-0.372,4.131-0.618,6.246-0.736c0.355-0.694,0.533-1.143,0.533-1.346s-0.135-0.305-0.406-0.305
		c-2.099,0.102-4.181,0.448-6.246,1.041C90.841,12.952,90.714,13.383,90.595,13.824z M91.738,17.378
		c-0.271,0.863-0.499,1.701-0.686,2.514c1.186,0.168,2.379,0.295,3.58,0.381c-0.118-1.185-0.22-2.286-0.305-3.301
		C93.499,17.074,92.635,17.209,91.738,17.378z M98.416,16.642c0.102,1.219,0.203,2.479,0.305,3.784
		c1.033-0.018,1.837-0.17,2.412-0.457c0.373-0.221,0.559-0.635,0.559-1.245c0-0.728-0.152-1.235-0.457-1.523
		c-0.423-0.372-1.227-0.559-2.412-0.559H98.416z"/>
</g>
</svg>
