<?xml version="1.0" encoding="utf-8"?>
<!-- Generator: Adobe Illustrator 16.0.0, SVG Export Plug-In . SVG Version: 6.00 Build 0)  -->
<!DOCTYPE svg PUBLIC "-//W3C//DTD SVG 1.1//EN" "http://www.w3.org/Graphics/SVG/1.1/DTD/svg11.dtd">
<svg version="1.1" id="圖層_1" xmlns="http://www.w3.org/2000/svg" xmlns:xlink="http://www.w3.org/1999/xlink" x="0px" y="0px"
	 width="114.667px" height="37.75px" viewBox="0 0 114.667 37.75" enable-background="new 0 0 114.667 37.75" xml:space="preserve">
<g id="圖層_2" display="none">
	<rect display="inline" fill="#040000" width="114.667" height="37.75"/>
</g>
<text transform="matrix(1 0 0 1 5.1309 26.2148)" display="none" fill="#0DA2DA" enable-background="new    " font-family="'DFHaiBao-W12-WIN-BF'" font-size="26">圖庫素材</text>
<g enable-background="new    ">
	<path fill="#0DA2DA" d="M9.98,7.425l1.295,0.609c2.556-0.829,5.307-1.244,8.252-1.244c1.676,0,3.208,0.144,4.596,0.432
		c1.388,0.474,2.717,1.481,3.986,3.021c1.388,1.93,2.082,4.562,2.082,7.896v1.854c0,2.59-0.609,4.646-1.828,6.17
		c-1.879,2.539-4.452,3.81-7.719,3.81h-2.666c-3.487,0-6.255-0.636-8.303-1.904c-2.234-1.828-3.352-4.377-3.352-7.644
		C6.324,15.922,7.543,11.589,9.98,7.425z M19.324,9.736c-1.625,0-3.402,0.339-5.332,1.016l0.584,0.152
		c1.202-0.22,2.412-0.33,3.631-0.33c2.488,0,4.164,0.178,5.027,0.533c0.795,0.321,1.176,0.838,1.143,1.549l0.051,0.254
		c0,0.66-0.296,1.101-0.889,1.32c-0.508,0.22-1.71,0.355-3.605,0.406c-0.169,0.203-0.322,0.406-0.457,0.609
		c1.997,0.102,3.952,0.229,5.865,0.381l-0.432,2.26c-4.52-0.339-9.048-0.609-13.584-0.813l0.381-2.234
		c1.456,0.051,2.895,0.118,4.316,0.203c0.102-0.152,0.194-0.288,0.279-0.406c-1.422-0.051-2.446-0.187-3.072-0.406
		c-0.593-0.288-0.889-0.728-0.889-1.32c0-0.559,0.152-1.126,0.457-1.701c-0.152,0.067-0.288,0.136-0.406,0.203
		c-1.287,2.505-2.015,5.298-2.184,8.379c0,2.91,0.66,4.824,1.98,5.738c1.54,0.998,3.419,1.498,5.637,1.498h2.133
		c2.454,0,4.198-0.855,5.23-2.564c0.778-1.254,1.168-2.879,1.168-4.875c0-3.267-0.517-5.688-1.549-7.262
		C23.827,10.802,21.999,9.939,19.324,9.736z M12.723,17.556l1.016,0.508c1.388-0.118,2.852-0.178,4.393-0.178
		c1.151,0,2.209,0.042,3.174,0.127c0.965,0.169,1.887,0.517,2.768,1.041c0.981,0.625,1.473,1.506,1.473,2.641v0.66
		c0,1.016-0.415,1.828-1.244,2.438c-1.27,0.998-2.988,1.498-5.154,1.498h-1.523c-1.98,0-3.555-0.264-4.723-0.787
		c-1.27-0.779-1.904-1.863-1.904-3.25C10.996,20.611,11.571,19.045,12.723,17.556z M18.029,19.791c-1.134,0-2.421,0.236-3.859,0.711
		c-0.187,0.389-0.296,0.795-0.33,1.219c0,1.066,0.338,1.76,1.016,2.082c0.762,0.389,1.701,0.584,2.818,0.584h1.066
		c1.523,0,2.598-0.264,3.225-0.787c0.474-0.391,0.711-0.881,0.711-1.473c0-0.779-0.339-1.346-1.016-1.701
		C21,20.053,19.79,19.842,18.029,19.791z M14.779,20.527l0.686,0.152c0.846-0.306,1.667-0.457,2.463-0.457
		c0.981,0,1.659,0.032,2.031,0.102c0.694,0.102,1.193,0.287,1.498,0.559c0.355,0.236,0.533,0.66,0.533,1.27v0.203
		c0,0.371-0.178,0.693-0.533,0.965c-0.44,0.355-1.422,0.533-2.945,0.533h-0.965c-0.914,0-1.659-0.094-2.234-0.278
		c-0.711-0.289-1.066-0.771-1.066-1.447C14.246,21.67,14.424,21.137,14.779,20.527z M18.41,12.072c-1.033,0-2.065,0.263-3.098,0.787
		c0.051,0.034,0.102,0.051,0.152,0.051c0.44,0.118,1.193,0.178,2.26,0.178h1.117c1.066,0,1.862-0.025,2.387-0.076
		c0.288-0.034,0.432-0.102,0.432-0.203c-0.034-0.321-0.254-0.517-0.66-0.584C20.492,12.123,19.629,12.072,18.41,12.072z
		 M17.826,21.543c-0.457,0-0.889,0.059-1.295,0.178c0.017,0.287,0.118,0.49,0.305,0.609c0.22,0.152,0.677,0.229,1.371,0.229
		c0.355,0,0.66-0.018,0.914-0.051c0.186-0.018,0.338-0.061,0.457-0.127c0.084-0.035,0.135-0.119,0.152-0.254
		c0-0.271-0.152-0.441-0.457-0.508C19.087,21.568,18.604,21.543,17.826,21.543z"/>
	<path fill="#0DA2DA" d="M46.162,6.308c0.271,0.694,0.643,1.354,1.117,1.98c2.606-0.102,5.239-0.152,7.896-0.152l0.305,3.25
		c-2.793,0-5.586,0.06-8.379,0.178c0.034,0.39,0.067,0.771,0.102,1.143c2.573,0.102,5.104,0.229,7.592,0.381L54.49,16.16
		c-2.421-0.136-4.773-0.254-7.059-0.355c0.017,0.169,0.025,0.313,0.025,0.432c3.216,0.051,5.391,0.44,6.525,1.168
		c1.151,0.626,1.701,1.667,1.65,3.124l0.076,0.481c0,1.607-0.466,2.683-1.396,3.226c-0.847,0.559-2.886,0.871-6.119,0.938
		c0.017,0.152,0.025,0.287,0.025,0.406c2.234-0.119,4.485-0.254,6.754-0.406l0.305,3.048c-2.269,0.168-4.537,0.305-6.805,0.405
		c0.034,0.457,0.067,0.904,0.102,1.347l-3.834,0.381c-0.068-0.525-0.119-1.033-0.152-1.523c-2.336,0.102-4.689,0.178-7.059,0.229
		l-0.305-3.071c2.353-0.052,4.723-0.128,7.109-0.229c-0.017-0.188-0.034-0.381-0.051-0.584c-2.742,0-4.664-0.264-5.764-0.787
		c-0.931-0.594-1.396-1.508-1.396-2.742c0-1.744,0.635-3.513,1.904-5.307l1.549,0.381c1.016-0.152,2.014-0.271,2.996-0.355
		c-0.017-0.254-0.034-0.517-0.051-0.787c-1.879-0.085-3.716-0.169-5.51-0.254l0.533-2.945c1.591,0.067,3.174,0.127,4.748,0.178
		c-0.034-0.288-0.06-0.55-0.076-0.787c-1.845,0.102-3.69,0.229-5.535,0.381c-0.796,5.519-1.253,11.282-1.371,17.292l-3.783-0.381
		c0.051-5.756,0.465-11.265,1.244-16.529c-0.237,0.034-0.474,0.06-0.711,0.076l-0.33-3.25c3.199-0.372,6.491-0.66,9.877-0.863
		c-0.136-0.22-0.246-0.448-0.33-0.686L46.162,6.308z M44.08,22.635c-0.017-0.254-0.034-0.508-0.051-0.762
		c-0.965-0.051-1.921-0.086-2.869-0.102c0.118,0.168,0.262,0.287,0.432,0.354C42.116,22.414,42.946,22.584,44.08,22.635z
		 M43.877,19.791c-0.017-0.221-0.034-0.423-0.051-0.61c-0.626,0.136-1.244,0.313-1.854,0.534
		C42.599,19.73,43.233,19.756,43.877,19.791z M47.66,18.775c0.034,0.423,0.067,0.829,0.102,1.219
		c0.508,0.051,1.024,0.092,1.549,0.127l-0.203,2.006c-0.406-0.035-0.796-0.061-1.168-0.076c0.017,0.219,0.034,0.414,0.051,0.584
		c1.32-0.051,2.344-0.188,3.072-0.406c0.508-0.254,0.762-0.729,0.762-1.422c-0.051-0.863-0.39-1.406-1.016-1.625
		C50.148,18.944,49.099,18.809,47.66,18.775z"/>
	<path fill="#0DA2DA" d="M60.177,7.527h7.059c-0.033-0.22-0.059-0.432-0.076-0.635l4.164-0.406c0.034,0.373,0.076,0.72,0.127,1.041
		h8.812l-0.306,3.148h-8.125c0.019,0.152,0.035,0.305,0.051,0.457c2.185-0.051,4.377-0.11,6.576-0.178l0.306,2.768
		c-2.185,0.067-4.367,0.127-6.552,0.178c0.019,0.136,0.035,0.279,0.052,0.432c2.726-0.118,5.468-0.254,8.228-0.406l0.305,3.047
		c-1.76,0.102-3.504,0.194-5.23,0.279c0.339,0.118,0.678,0.237,1.016,0.355c1.254,0.457,1.879,1.058,1.879,1.803
		c0,0.541-0.102,0.98-0.305,1.32c0.881,1.117,1.32,2.133,1.32,3.047c-0.033,0.777-0.465,1.32-1.295,1.625
		c1.186,0.643,2.184,1.422,2.996,2.336l-2.717,2.717c-1.017-0.848-2.209-1.719-3.58-2.615l2.031-2.107
		c-1.423,0.236-3.115,0.382-5.078,0.433c0.102,1.185,0.211,2.42,0.33,3.707l-4.189,0.405c-0.135-1.508-0.254-2.868-0.355-4.088
		c-1.93-0.034-3.343-0.145-4.24-0.33c-1.455-0.354-2.184-0.848-2.184-1.473c0.018-1.117,0.508-2.15,1.473-3.098
		c-0.457-0.441-0.686-0.939-0.686-1.498c0-0.458,0.5-0.965,1.498-1.524c0.424-0.203,0.848-0.406,1.27-0.609
		c-1.691,0.034-3.394,0.067-5.104,0.102l-0.305-3.021c2.877-0.051,5.781-0.136,8.709-0.254c-0.018-0.169-0.033-0.33-0.051-0.482
		c-2.269,0.051-4.537,0.085-6.806,0.102l-0.33-2.717c2.253-0.051,4.521-0.102,6.806-0.152c-0.033-0.187-0.06-0.372-0.076-0.559
		h-7.947L60.177,7.527z M60.38,25.986l3.858,0.406c-0.286,1.233-0.432,2.428-0.432,3.58l-3.834-0.433
		C59.974,28.338,60.11,27.154,60.38,25.986z M66.017,22.482c-0.051,0.084-0.076,0.143-0.076,0.178c0,0.203,0.17,0.355,0.508,0.457
		c0.457,0.084,1.686,0.127,3.682,0.127c1.508,0,2.812-0.102,3.91-0.305c0.424-0.103,0.635-0.322,0.635-0.66
		c-1.606,0.186-3.936,0.279-6.981,0.279C67.083,22.559,66.525,22.533,66.017,22.482z M67.794,19.994
		c3.131,0,5.104-0.152,5.916-0.457c0.322,0,0.481-0.111,0.481-0.331c0-0.102-1.295-0.279-3.885-0.533
		c-2.269,0.372-3.622,0.677-4.063,0.915C66.246,19.857,66.762,19.994,67.794,19.994z"/>
	<path fill="#0DA2DA" d="M93.972,11.691l0.406,4.063c-0.813,0-1.607,0.025-2.387,0.076c0.067,0.711,0.135,1.431,0.202,2.158
		c1.287,0.305,2.431,0.644,3.429,1.016l-1.144,3.834c-0.644-0.188-1.252-0.355-1.828-0.508c0.17,1.742,0.339,3.512,0.509,5.307
		l-4.037,0.406c-0.221-2.049-0.424-4.021-0.609-5.916c-0.795,0.66-1.607,1.336-2.438,2.031l-2.031-3.25
		c1.338-1.254,2.666-2.387,3.985-3.403c-0.051-0.423-0.102-0.854-0.151-1.295c-1.017,0.136-1.988,0.313-2.92,0.533l-0.433-4.037
		c0.999-0.22,1.989-0.397,2.972-0.533c-0.103-1.117-0.203-2.2-0.306-3.25l4.037-0.381c0.119,1.066,0.237,2.142,0.354,3.225
		C92.38,11.716,93.177,11.691,93.972,11.691z M107.378,11.97l0.432,4.088c-0.947,0-1.887,0.017-2.818,0.051
		c0.475,4.079,0.975,8.293,1.498,12.645l-4.494,0.482c-0.271-2.082-0.523-4.139-0.762-6.17c-1.438,1.438-2.869,2.885-4.291,4.342
		l-3.148-2.92c2.336-2.539,4.597-4.834,6.779-6.881c-0.051-0.406-0.093-0.804-0.127-1.193c-1.676,0.152-3.359,0.372-5.053,0.66
		l-0.381-4.088c1.625-0.271,3.293-0.499,5.002-0.686c-0.169-1.438-0.321-2.869-0.457-4.291l4.469-0.482
		c0.17,1.489,0.34,2.987,0.508,4.494C105.483,11.987,106.431,11.97,107.378,11.97z"/>
</g>
</svg>
