<?xml version="1.0" encoding="utf-8"?>
<!-- Generator: Adobe Illustrator 16.0.0, SVG Export Plug-In . SVG Version: 6.00 Build 0)  -->
<!DOCTYPE svg PUBLIC "-//W3C//DTD SVG 1.1//EN" "http://www.w3.org/Graphics/SVG/1.1/DTD/svg11.dtd">
<svg version="1.1" id="圖層_1" xmlns="http://www.w3.org/2000/svg" xmlns:xlink="http://www.w3.org/1999/xlink" x="0px" y="0px"
	 width="114.667px" height="37.75px" viewBox="0 0 114.667 37.75" enable-background="new 0 0 114.667 37.75" xml:space="preserve">
<g id="圖層_2" display="none">
	<rect display="inline" fill="#040000" width="114.667" height="37.75"/>
</g>
<text transform="matrix(1 0 0 1 5.1309 26.2148)" display="none" fill="#6C0000" enable-background="new    " font-family="'DFHaiBao-W12-WIN-BF'" font-size="26">相關連結</text>
<g enable-background="new    ">
	<path fill="#6C0000" d="M15.16,11.589l0.432,4.037c-0.88,0-1.718,0.034-2.514,0.102c0.067,0.728,0.152,1.456,0.254,2.184
		c0.813,0.254,1.54,0.499,2.184,0.736c0.169-3.825,0.939-7.532,2.311-11.121l2.26,0.508c0.711-0.22,1.506-0.389,2.387-0.508
		c1.997,0,3.284,0.178,3.859,0.533c0.965,0.355,1.743,1.177,2.336,2.463c0.711,1.185,1.092,3.597,1.143,7.236
		c0,3.758-0.39,6.465-1.168,8.125c-1.219,2.438-3.064,3.656-5.535,3.656c-2.675,0-4.638-0.779-5.891-2.336
		c-1.066-1.49-1.634-3.598-1.701-6.322l-0.559,1.854c-0.44-0.137-0.838-0.264-1.193-0.381c0.152,1.691,0.313,3.41,0.482,5.154
		l-4.037,0.432c-0.203-1.879-0.39-3.691-0.559-5.434c-0.559,0.49-1.117,1.006-1.676,1.549l-2.031-3.25
		c1.083-1.117,2.158-2.142,3.225-3.073c-0.068-0.559-0.127-1.108-0.178-1.65c-0.745,0.102-1.456,0.22-2.133,0.355l-0.432-4.063
		c0.728-0.136,1.447-0.245,2.158-0.33c-0.102-1.117-0.203-2.192-0.305-3.225l4.063-0.381c0.102,1.066,0.211,2.142,0.33,3.225
		C13.501,11.615,14.331,11.589,15.16,11.589z M22.295,11.488c-0.576,0.118-1.101,0.271-1.574,0.457
		c-0.136,0.491-0.246,0.965-0.33,1.422c1.151,0.085,2.285,0.271,3.402,0.559l-0.381,3.631c-1.219-0.254-2.429-0.423-3.631-0.508
		c-0.068,0.559-0.11,1.092-0.127,1.6c1.219,0.085,2.438,0.271,3.656,0.559l-0.432,3.631c-1.033-0.203-2.065-0.355-3.098-0.457
		c0.102,0.863,0.262,1.488,0.482,1.879c0.457,0.896,1.261,1.346,2.412,1.346c1.134,0,1.913-0.576,2.336-1.727
		c0.423-1.186,0.635-2.955,0.635-5.307c0-3.894-0.254-5.983-0.762-6.271c-0.355-0.423-0.779-0.66-1.27-0.711
		C23.09,11.522,22.65,11.488,22.295,11.488z"/>
	<path fill="#6C0000" d="M35.777,7.705c0.017,0.102,0.025,0.195,0.025,0.279c1.219-0.305,2.344-0.457,3.377-0.457
		c1.354,0,2.37,0.423,3.047,1.27c0.677,0.948,1.032,2.142,1.066,3.58v1.32c0,1.997-0.398,3.301-1.193,3.91
		c-0.254,0.187-0.525,0.33-0.813,0.432c0.457,0.203,1.024,0.601,1.701,1.193c0.694,0.745,1.075,1.514,1.143,2.311
		c0,0.32-0.127,0.584-0.381,0.787c0.22,0.305,0.389,0.609,0.508,0.914c0.017,0.066,0.034,0.117,0.051,0.152
		c0.152-0.391,0.372-0.787,0.66-1.193c-0.305-0.254-0.457-0.576-0.457-0.965c0-0.645,0.347-1.447,1.041-2.413
		c0.559-0.542,1.041-0.897,1.447-1.066c-0.644-0.187-1.27-0.609-1.879-1.27c-0.66-0.829-0.99-1.964-0.99-3.402
		c0-1.93,0.364-3.995,1.092-6.195L47,7.349c1.286-0.44,2.606-0.66,3.961-0.66c1.219,0,2.311,0.364,3.275,1.092
		c1.117,0.847,1.676,2.345,1.676,4.494v0.863c0,1.473-0.178,3.183-0.533,5.129c-0.288,1.76-0.66,3.157-1.117,4.19l-3.352-0.736
		c0.508-1.457,0.88-2.886,1.117-4.292c-1.219,0.305-2.37,0.457-3.453,0.457h-0.279c0.44,0.187,0.956,0.491,1.549,0.914
		c0.711,0.61,1.1,1.245,1.168,1.905c0,0.541-0.169,0.955-0.508,1.244c0.321,0.305,0.575,0.592,0.762,0.863
		c0.254,0.406,0.381,0.787,0.381,1.143c0,0.457-0.187,0.813-0.559,1.066c0.305,0.49,0.491,1.092,0.559,1.803
		c-0.034,1.59-0.88,2.395-2.539,2.412h-0.279c-0.169,0-0.33-0.01-0.482-0.025c0.051,0.287,0.093,0.574,0.127,0.863l-2.945,0.279
		c-0.288-1.711-0.533-3.42-0.736-5.129c-0.169-0.086-0.296-0.188-0.381-0.305c-0.152,0.236-0.364,0.432-0.635,0.584
		c0.271,1.438,0.592,2.961,0.965,4.57l-2.945,0.279c-0.102-0.424-0.195-0.838-0.279-1.244c-0.322,0.033-0.601,0.051-0.838,0.051
		c-1.202,0-2.065-0.195-2.59-0.584c-0.508-0.373-0.762-0.863-0.762-1.473c0-0.525,0.144-1.076,0.432-1.65
		c-0.355-0.238-0.533-0.525-0.533-0.863c0-0.119,0.017-0.264,0.051-0.432l-3.529,0.432c-0.559-6.179-1.066-11.664-1.523-16.454
		L35.777,7.705z M36.184,11.919c1.185-0.22,2.361-0.355,3.529-0.406c-0.085-0.39-0.187-0.66-0.305-0.813
		c-0.254-0.305-0.593-0.457-1.016-0.457c-0.406,0-1.177,0.187-2.311,0.559C36.116,11.192,36.149,11.564,36.184,11.919z
		 M36.539,15.652c0.524,0.102,1.016,0.169,1.473,0.203c0.559,0,1.024-0.136,1.396-0.406c0.203-0.136,0.33-0.499,0.381-1.092
		c-1.185,0.051-2.294,0.187-3.326,0.406C36.479,15.068,36.505,15.364,36.539,15.652z M37.326,24.031
		c0.118-0.457,0.338-0.99,0.66-1.6c-0.237-0.238-0.355-0.533-0.355-0.889c0-0.66,0.355-1.482,1.066-2.463
		c0.22-0.237,0.423-0.423,0.609-0.559c-0.305,0.034-0.593,0.051-0.863,0.051c-0.542,0-1.092-0.025-1.65-0.076
		C36.962,20.307,37.14,22.152,37.326,24.031z M40.246,21.01c1.1,0,1.65-0.068,1.65-0.203c-0.119-0.609-0.491-0.914-1.117-0.914
		c-0.626,0.066-0.939,0.371-0.939,0.914C39.874,20.941,40.009,21.01,40.246,21.01z M40.373,22.914
		c-0.288,0.422-0.432,0.676-0.432,0.762c0,0.135,0.076,0.236,0.229,0.305c0.102,0.051,0.338,0.076,0.711,0.076
		c0.338,0,0.575-0.043,0.711-0.127c0.135-0.051,0.203-0.137,0.203-0.254c0-0.17-0.119-0.424-0.355-0.762H40.373z M41.059,27.078
		c-0.068-0.355-0.136-0.721-0.203-1.092h-0.229c-0.119,0-0.237-0.01-0.355-0.025c-0.119,0.203-0.195,0.381-0.229,0.533
		c0,0.219,0.059,0.381,0.178,0.482c0.102,0.084,0.288,0.127,0.559,0.127C40.864,27.104,40.957,27.094,41.059,27.078z M47.178,20.705
		c1.066,0,1.6-0.061,1.6-0.178c-0.119-0.559-0.525-0.838-1.219-0.838c-0.542,0.066-0.813,0.346-0.813,0.838
		C46.78,20.645,46.924,20.705,47.178,20.705z M47.279,22.635c-0.271,0.338-0.406,0.541-0.406,0.609c0,0.236,0.093,0.406,0.279,0.508
		c0.135,0.066,0.415,0.102,0.838,0.102c0.338,0,0.575-0.076,0.711-0.229c0.118-0.086,0.178-0.246,0.178-0.482
		c0-0.119-0.136-0.297-0.406-0.533c-0.169,0.016-0.322,0.025-0.457,0.025H47.279z M52.484,14.255c0.051-0.644,0.076-1.177,0.076-1.6
		c0-1.304-0.263-2.184-0.787-2.641c-0.355-0.237-0.897-0.355-1.625-0.355c-0.796,0.118-1.625,0.305-2.488,0.559
		c-0.068,0.321-0.119,0.609-0.152,0.863c1.185-0.085,2.353-0.127,3.504-0.127l0.33,2.768c-1.354,0-2.624,0.051-3.809,0.152
		c0.186,0.711,0.567,1.066,1.143,1.066C49.827,14.941,51.096,14.712,52.484,14.255z M47.838,25.809
		c0.067,0.389,0.135,0.787,0.203,1.193c0.135,0.016,0.279,0.025,0.432,0.025c0.271,0,0.406-0.178,0.406-0.533
		c-0.034-0.289-0.144-0.525-0.33-0.711c-0.152,0.016-0.305,0.025-0.457,0.025H47.838z"/>
	<path fill="#6C0000" d="M59.873,14.103c1.608,0.288,2.954,0.694,4.037,1.219l-1.016,3.453c-1.388-0.593-2.733-1.032-4.037-1.32
		L59.873,14.103z M66.144,7.705c1.405,0.051,2.785,0.102,4.139,0.152c-0.051-0.44-0.102-0.863-0.152-1.27l3.961-0.381
		c0.085,0.626,0.161,1.236,0.229,1.828c2.269,0.136,4.486,0.271,6.652,0.406l-0.178,2.945c-2.099-0.136-4.13-0.254-6.094-0.355
		c0.018,0.136,0.034,0.271,0.051,0.406c0.796,0.017,1.549,0.067,2.26,0.152c1.507,0.203,2.624,0.694,3.352,1.473
		c0.609,0.626,0.914,1.777,0.914,3.453v0.66c0,0.711-0.194,1.489-0.584,2.336c-0.626,1.201-1.861,1.955-3.707,2.26
		c-0.305,0.051-0.617,0.084-0.939,0.102c0.018,0.117,0.043,0.244,0.076,0.381c1.744-0.086,3.462-0.127,5.154-0.127l0.33,3.148
		c-1.777,0-3.486,0.025-5.129,0.076c0.085,0.643,0.161,1.26,0.229,1.854l-2.742,0.279l0.33,1.574
		c-2.285,0.609-4.451,0.914-6.5,0.914h-1.092c-2.048,0-3.8-0.406-5.256-1.219c-1.591-1-2.387-2.422-2.387-4.266
		c0-1.609,0.305-3.438,0.914-5.485l3.936,0.889c-0.609,1.455-0.914,2.75-0.914,3.885c0,0.93,0.355,1.615,1.066,2.057
		c0.66,0.439,1.761,0.66,3.301,0.66c1.558,0,3.275-0.213,5.154-0.635c0-0.119-0.008-0.221-0.025-0.305
		c-2.285,0.117-4.469,0.295-6.551,0.533l-0.279-3.148c2.167-0.221,4.316-0.391,6.449-0.508c-0.017-0.137-0.033-0.271-0.051-0.406
		h-0.939c-1.861-0.035-3.241-0.305-4.139-0.813c-1.235-0.645-1.854-2.057-1.854-4.241c0-1.117,0.584-2.911,1.752-5.383l1.752,0.457
		c0.729-0.22,1.431-0.381,2.107-0.482c-0.017-0.271-0.051-0.517-0.102-0.736c-1.676-0.085-3.301-0.169-4.875-0.254L66.144,7.705z
		 M60.66,9.253c1.693,0.271,3.115,0.677,4.266,1.219l-1.016,3.555c-1.455-0.609-2.877-1.05-4.266-1.32L60.66,9.253z M71.679,19.181
		c-0.051-0.457-0.102-0.889-0.152-1.295c-0.863-0.102-1.709-0.187-2.539-0.254c0.102,0.491,0.297,0.821,0.584,0.99
		C69.927,18.927,70.63,19.114,71.679,19.181z M71.171,15.068c-0.033-0.237-0.059-0.466-0.076-0.686
		c-0.626,0.102-1.227,0.254-1.803,0.457c-0.017,0.051-0.025,0.085-0.025,0.102C69.927,14.975,70.562,15.017,71.171,15.068z
		 M75.132,14.306c0.051,0.372,0.094,0.736,0.127,1.092c0.475,0.051,0.932,0.093,1.371,0.127l-0.203,2.768
		c-0.287-0.017-0.559-0.042-0.813-0.076c0.018,0.237,0.043,0.466,0.076,0.686c0.627-0.118,1.092-0.381,1.396-0.787
		c0.305-0.491,0.457-1.016,0.457-1.574c0-0.694-0.084-1.159-0.254-1.396c-0.355-0.423-0.939-0.694-1.752-0.813
		C75.386,14.315,75.251,14.306,75.132,14.306z"/>
	<path fill="#6C0000" d="M95.826,8.72c0.982,0.067,1.955,0.144,2.92,0.229c-0.067-0.677-0.135-1.329-0.203-1.955l4.266-0.406
		c0.102,0.914,0.203,1.854,0.305,2.818c1.693,0.203,3.352,0.415,4.977,0.635l-0.381,4.164c-1.422-0.169-2.801-0.321-4.139-0.457
		c0.068,0.593,0.127,1.185,0.178,1.777c0.948-0.034,1.896-0.067,2.844-0.102l0.381,3.682c-3.47,0.152-6.99,0.254-10.563,0.305
		l-0.381-3.657c1.135-0.017,2.277-0.051,3.428-0.102c-0.084-0.847-0.169-1.65-0.254-2.412c-1.303-0.152-2.572-0.288-3.809-0.406
		v0.051c-0.051,0.999-0.279,1.777-0.686,2.336c0.237,0.457,0.424,0.897,0.559,1.32c0.237,0.677,0.355,1.32,0.355,1.93
		c0,1.354-0.49,2.387-1.473,3.098c-0.609,0.457-1.295,0.777-2.057,0.965c0.034,0.32,0.06,0.66,0.076,1.016
		c0.982,0.152,1.989,0.229,3.021,0.229l-0.279,3.529c-0.914,0-1.727-0.051-2.438-0.152c0.068,0.896,0.136,1.803,0.203,2.717
		l-3.783,0.406c-0.152-2.201-0.305-4.24-0.457-6.119c-0.372,1.76-0.559,3.453-0.559,5.078l-3.021-0.279
		c0-1.998,0.229-3.936,0.686-5.814l2.844,0.305c-0.017-0.305-0.033-0.584-0.051-0.838c-0.575-0.086-1.117-0.221-1.625-0.406
		c-1.388-0.627-2.082-1.736-2.082-3.327c0-0.914,0.39-2.116,1.168-3.605c-0.559-0.813-0.838-1.812-0.838-2.996
		c0-1.354,1.278-3.013,3.834-4.977c0.762-0.474,1.313-0.711,1.65-0.711c0.762,0.152,1.566,0.652,2.412,1.498
		c1.405,1.438,2.218,2.768,2.438,3.986L95.826,8.72z M88.691,16.845c-0.186,0.372-0.279,0.609-0.279,0.711
		c0,0.626,0.127,1.092,0.381,1.396c0.187,0.237,0.593,0.355,1.219,0.355c0.694,0,1.186-0.22,1.473-0.66
		c0.237-0.237,0.355-0.669,0.355-1.295c0-0.169-0.059-0.406-0.178-0.711c-0.677,0.136-1.455,0.212-2.336,0.229
		C89.089,16.871,88.877,16.862,88.691,16.845z M89.808,13.722c0.609,0,1.151-0.076,1.625-0.229c0.271-0.118,0.406-0.321,0.406-0.609
		c-0.017-0.524-0.186-1.058-0.508-1.6c-0.355-0.406-0.651-0.609-0.889-0.609c-0.406,0-0.787,0.22-1.143,0.66
		c-0.423,0.44-0.686,0.931-0.787,1.473c0,0.288,0.085,0.491,0.254,0.609C88.97,13.621,89.318,13.722,89.808,13.722z M97.527,19.893
		l1.549,0.381c0.948-0.152,1.888-0.246,2.818-0.279c1.033,0,1.938,0.066,2.717,0.203c0.711,0.066,1.396,0.422,2.057,1.066
		c0.694,0.49,1.041,1.912,1.041,4.266v0.457c0,1.252-0.474,2.225-1.422,2.92c-0.846,0.711-2.064,1.066-3.656,1.066h-0.609
		c-2.471,0-4.273-0.441-5.408-1.32c-0.813-0.645-1.219-1.592-1.219-2.844C95.394,23.844,96.105,21.873,97.527,19.893z
		 M101.792,23.371c-0.372,0-1.159,0.211-2.361,0.635c-0.102,0.389-0.152,0.744-0.152,1.066c0,0.541,0.161,0.922,0.482,1.143
		c0.44,0.27,1.186,0.406,2.234,0.406c0.711,0,1.202-0.137,1.473-0.406c0.237-0.221,0.355-0.602,0.355-1.143
		c-0.051-0.932-0.296-1.447-0.736-1.549C102.63,23.422,102.199,23.371,101.792,23.371z"/>
</g>
</svg>
