<?xml version="1.0" encoding="utf-8"?>
<!-- Generator: Adobe Illustrator 16.0.0, SVG Export Plug-In . SVG Version: 6.00 Build 0)  -->
<!DOCTYPE svg PUBLIC "-//W3C//DTD SVG 1.1//EN" "http://www.w3.org/Graphics/SVG/1.1/DTD/svg11.dtd">
<svg version="1.1" id="圖層_1" xmlns="http://www.w3.org/2000/svg" xmlns:xlink="http://www.w3.org/1999/xlink" x="0px" y="0px"
	 width="114.667px" height="37.75px" viewBox="0 0 114.667 37.75" enable-background="new 0 0 114.667 37.75" xml:space="preserve">
<g id="圖層_2" display="none">
	<rect display="inline" fill="#040000" width="114.667" height="37.75"/>
</g>
<text transform="matrix(1 0 0 1 5.1309 26.2148)" display="none" fill="#1C8822" enable-background="new    " font-family="'DFHaiBao-W12-WIN-BF'" font-size="26">故事大綱</text>
<g enable-background="new    ">
	<path fill="#1C8822" d="M7.34,10.041c1.405,0.118,2.793,0.263,4.164,0.432c0.288-1.151,0.601-2.268,0.939-3.352L16.48,8.01
		c-0.288,0.999-0.559,1.997-0.813,2.996c0.846,0.118,1.667,0.245,2.463,0.381l-0.355,3.656c0.999-2.996,1.887-5.679,2.666-8.049
		l3.885,1.346c-0.203,0.491-0.39,0.99-0.559,1.498c2.082,0.22,4.096,0.499,6.043,0.838l-0.432,4.164
		c-2.455-0.339-4.799-0.651-7.033-0.939c-0.508,1.507-0.965,3.005-1.371,4.494l-3.885-1.32c0.169-0.491,0.33-0.981,0.482-1.473
		c-0.982-0.118-1.938-0.237-2.869-0.355c-0.152,0.762-0.296,1.523-0.432,2.285c0.423,0.034,0.813,0.085,1.168,0.152
		c0.778,0.085,1.523,0.508,2.234,1.27c0.778,0.575,1.168,2.226,1.168,4.952v0.584c0,1.59-0.525,2.826-1.574,3.707
		c-0.965,0.896-2.345,1.346-4.139,1.346h-0.533c-2.285,0-3.97-0.568-5.053-1.701c-0.745-0.848-1.117-2.107-1.117-3.783
		c0-2.117,0.651-4.25,1.955-6.398l1.016,0.254c0.22-0.067,0.44-0.127,0.66-0.178c0.135-1.016,0.305-2.022,0.508-3.021
		c-1.354-0.187-2.666-0.355-3.936-0.508L7.34,10.041z M12.24,21.137c-0.288,0-0.821,0.127-1.6,0.381
		c-0.22,0.66-0.33,1.277-0.33,1.854c0,0.879,0.135,1.506,0.406,1.879c0.338,0.438,0.948,0.66,1.828,0.66
		c0.931,0,1.574-0.203,1.93-0.609c0.321-0.34,0.482-0.913,0.482-1.727c-0.051-1.32-0.39-2.058-1.016-2.209
		C13.332,21.213,12.765,21.137,12.24,21.137z M24.631,14.941l4.063,0.914c-0.779,2.015-1.523,4.053-2.234,6.12
		c1.219,0.371,2.403,0.762,3.555,1.168l-1.32,4.164c-1.219-0.44-2.421-0.854-3.605-1.244c-0.406,1.336-0.804,2.674-1.193,4.013
		l-4.037-0.914c0.406-1.457,0.829-2.861,1.27-4.216c-0.728-0.17-1.422-0.321-2.082-0.456l1.295-4.063
		c0.711,0.152,1.413,0.305,2.107,0.457C23.158,18.766,23.886,16.786,24.631,14.941z"/>
	<path fill="#1C8822" d="M33.975,7.527c2.149,0.068,4.266,0.136,6.348,0.203c-0.034-0.288-0.06-0.567-0.076-0.838l4.799-0.482
		c0.034,0.525,0.076,1.033,0.127,1.523c3.334,0.152,6.602,0.321,9.801,0.508l-0.279,3.148c-3.183-0.136-6.28-0.279-9.293-0.432
		c0.017,0.152,0.025,0.296,0.025,0.432c3.334,0.017,5.603,0.229,6.805,0.635c1.422,0.39,2.133,1.337,2.133,2.844v0.355
		c0,0.762-0.482,1.278-1.447,1.549c-0.965,0.237-2.396,0.364-4.291,0.381h-2.742c0,0.085,0.008,0.161,0.025,0.229
		c0.355-0.017,0.719-0.025,1.092-0.025c2.641,0,4.596,0.491,5.865,1.473c0.677,0.489,1.159,1.149,1.447,1.979h1.168l0.33,3.25
		h-1.168c-0.136,1.404-0.576,2.387-1.32,2.945c-1.117,0.914-2.861,1.387-5.23,1.422c-0.457,0-0.906,0-1.346,0
		c0.034,0.422,0.076,0.838,0.127,1.244l-4.799,0.482c-0.051-0.646-0.093-1.263-0.127-1.854c-3.03-0.119-5.764-0.34-8.201-0.66
		l0.406-2.69c-0.559,0.033-1.101,0.076-1.625,0.127l-0.305-3.25c2.979-0.271,6.026-0.482,9.141-0.635
		c-0.017-0.238-0.034-0.449-0.051-0.636c-2.082,0.152-4.367,0.414-6.855,0.787l-0.482-2.971c2.319-0.372,4.688-0.644,7.109-0.813
		c0-0.152-0.009-0.288-0.025-0.406h-1.498c-2.438,0-4.097-0.187-4.977-0.559c-0.948-0.423-1.422-1.108-1.422-2.057
		c0-1.202,0.406-2.429,1.219-3.682l3.123,0.686c1.049-0.034,2.09-0.067,3.123-0.102c-0.017-0.237-0.034-0.466-0.051-0.686
		c-2.438-0.102-4.816-0.194-7.135-0.279L33.975,7.527z M41.719,25.555c-0.034-0.322-0.06-0.619-0.076-0.889
		c-2.031,0.102-4.054,0.229-6.068,0.381C37.622,25.266,39.67,25.436,41.719,25.555z M40.881,15.042
		c-0.034-0.372-0.06-0.72-0.076-1.041c-1.185,0.017-2.336,0.051-3.453,0.102c0.034,0.355,0.118,0.601,0.254,0.736
		c0.169,0.136,0.338,0.203,0.508,0.203H40.881z M45.604,13.925c0.034,0.372,0.059,0.745,0.076,1.117h1.447
		c1.185,0,2.065-0.025,2.641-0.076c0.305-0.085,0.457-0.271,0.457-0.559c0-0.152-0.246-0.271-0.736-0.355
		C48.93,13.967,47.635,13.925,45.604,13.925z M46.137,20.527c0.017,0.236,0.034,0.457,0.051,0.66
		c1.066-0.035,2.133-0.076,3.199-0.127c-0.626-0.355-1.634-0.533-3.021-0.533C46.28,20.527,46.204,20.527,46.137,20.527z
		 M50.072,24.311c-1.219,0.051-2.438,0.103-3.656,0.152c0.034,0.422,0.067,0.838,0.102,1.244c0.186,0,0.372,0,0.559,0
		c1.066,0,1.913-0.213,2.539-0.635C49.835,24.902,49.987,24.648,50.072,24.311z"/>
	<path fill="#1C8822" d="M80.262,11.158l0.532,4.367c-3.471,0-6.948,0.085-10.436,0.254c-0.711,1.625-1.388,3.225-2.031,4.799
		c3.877,1.557,8.158,2.623,12.848,3.199l-1.016,4.545c-5.265-0.646-9.759-1.795-13.481-3.453c-0.66,1.676-1.278,3.342-1.854,5.002
		l-4.646-1.65c1.811-4.385,3.487-8.447,5.026-12.188c-1.845,0.118-3.699,0.254-5.561,0.406l-0.482-4.367
		c2.573-0.237,5.213-0.423,7.922-0.559c0.644-1.54,1.252-3.005,1.828-4.393l4.646,1.6c-0.406,0.863-0.805,1.718-1.193,2.564
		C74.955,11.2,77.587,11.158,80.262,11.158z"/>
	<path fill="#1C8822" d="M88.996,7.121c0.609,0.136,1.235,0.618,1.879,1.447c1.338,1.642,2.006,3.165,2.006,4.57
		c-0.033,0.948-0.202,1.692-0.508,2.234c0.287,0.491,0.5,0.948,0.635,1.371c0.236,0.644,0.355,1.253,0.355,1.828
		c0,1.252-0.415,2.209-1.244,2.871c-0.424,0.338-0.881,0.6-1.371,0.787c0.018,0.389,0.043,0.776,0.076,1.168
		c0.896,0.186,1.854,0.278,2.869,0.278l-0.33,3.148c-0.847,0-1.625-0.052-2.336-0.152c0.067,0.947,0.135,1.904,0.203,2.869
		l-3.453,0.33c-0.102-1.711-0.203-3.312-0.305-4.8c-0.254,1.285-0.381,2.548-0.381,3.783l-2.945-0.33
		c0-1.896,0.271-3.758,0.813-5.586l2.388,0.254c-0.019-0.254-0.034-0.5-0.052-0.735c-0.49-0.086-0.947-0.238-1.371-0.457
		c-1.135-0.576-1.7-1.617-1.7-3.124c0-0.863,0.321-1.997,0.965-3.402c-0.44-0.694-0.66-1.523-0.66-2.488
		c0-1.405,1.05-3.132,3.147-5.18C88.302,7.349,88.742,7.121,88.996,7.121z M87.751,16.947c-0.187,0.44-0.278,0.711-0.278,0.813
		c0,0.677,0.093,1.168,0.278,1.473c0.136,0.236,0.414,0.355,0.838,0.355c0.593,0,0.998-0.229,1.22-0.686
		c0.203-0.237,0.305-0.686,0.305-1.346c0-0.187-0.085-0.44-0.254-0.762c-0.524,0.102-1.108,0.161-1.752,0.178
		C87.972,16.972,87.854,16.963,87.751,16.947z M88.514,14.306c0.372,0,0.719-0.085,1.041-0.254c0.169-0.187,0.254-0.491,0.254-0.914
		c-0.019-0.593-0.11-1.21-0.279-1.854c-0.202-0.474-0.381-0.711-0.532-0.711c-0.289,0-0.567,0.321-0.838,0.965
		c-0.306,0.626-0.5,1.32-0.584,2.082c0,0.237,0.059,0.39,0.178,0.457C87.904,14.23,88.158,14.306,88.514,14.306z M96.207,8.923
		c0.018,0.22,0.033,0.432,0.051,0.635c0.373-0.136,0.763-0.271,1.168-0.406c1.846-0.542,3.867-0.813,6.068-0.813
		c1.676,0,2.92,0.651,3.732,1.955c0.693,1.117,1.049,2.564,1.066,4.342v1.092c0,1.727-0.103,3.588-0.306,5.586
		c-0.202,1.979-0.669,4.653-1.396,8.022l-3.25-0.584c0.186-0.914,0.354-1.762,0.508-2.539c-0.745,0.66-1.735,0.99-2.971,0.99h-1.017
		c-0.965,0-1.685-0.265-2.157-0.787c0.102,0.931,0.186,1.844,0.254,2.742l-3.479,0.278c-0.644-7.565-1.211-14.294-1.701-20.186
		L96.207,8.923z M96.791,15.423c0.439,0,0.89,0.009,1.347,0.025c-0.322-0.66-0.593-1.346-0.813-2.057l2.438-1.016
		c0.286,0.948,0.643,1.828,1.065,2.641c0.439-1.032,0.83-1.946,1.168-2.742l2.463,0.813c-0.457,0.914-0.862,1.812-1.219,2.691
		c0.609,0.051,1.211,0.11,1.803,0.178v-0.355c0-1.507-0.17-2.548-0.508-3.123c-0.39-0.66-1.041-0.99-1.955-0.99
		c-1.016,0-2.049,0.144-3.098,0.432c-0.83,0.22-1.803,0.584-2.92,1.092C96.646,13.824,96.723,14.627,96.791,15.423z M97.298,21.467
		c0.17-0.746,0.424-1.498,0.763-2.26l1.879,0.381c0.052-0.492,0.103-0.949,0.151-1.372c-1.049-0.051-2.073-0.085-3.071-0.102
		C97.104,19.215,97.197,20.332,97.298,21.467z M99.889,19.816c-0.339,0.879-0.609,1.92-0.813,3.123c0,0.625,0.084,1.006,0.254,1.143
		c0.051,0.051,0.109,0.084,0.178,0.102C99.609,22.66,99.736,21.203,99.889,19.816z M101.869,24.184
		c0.236-0.067,0.424-0.162,0.56-0.278c0.254-0.203,0.381-0.652,0.381-1.347c-0.119-0.848-0.306-1.635-0.56-2.36
		C102.08,21.5,101.953,22.828,101.869,24.184z M102.326,19.537l1.701-0.33c0.321,0.676,0.541,1.412,0.66,2.209
		c0-0.068,0.008-0.137,0.025-0.203c0.102-0.932,0.178-1.803,0.229-2.616c-0.83-0.085-1.65-0.161-2.463-0.229
		C102.428,18.758,102.376,19.146,102.326,19.537z"/>
</g>
</svg>
